<svg width="768" height="100" viewBox="0 0 768 100" fill="none" xmlns="http://www.w3.org/2000/svg">
<path d="M655.748 39.6694V100H675.026V59.7796H745.531V100H764.81V39.6694H655.748ZM672.823 20.1102H747.183C757.649 18.1818 765.085 8.81543 767.288 0H652.718C654.922 8.81543 662.633 17.9063 672.823 20.1102ZM597.086 100C606.725 95.8678 611.958 88.7052 614.161 80.4408H527.407V0.275482H507.853V100H597.086ZM363.264 19.8347H432.116C442.582 16.8044 451.119 8.81543 453.323 0.275482H344.261V59.2287H433.493V79.8898H363.539C352.523 82.9201 343.159 90.3581 338.477 100H452.772V39.6694H363.539L363.264 19.8347ZM193.612 20.1102H267.973C278.438 18.1818 286.149 8.81543 288.077 0H173.232C175.435 8.81543 183.147 17.9063 193.612 20.1102ZM193.612 59.5041H267.973C278.438 57.5758 286.149 48.2094 288.077 39.3939H173.232C175.435 48.2094 183.147 57.3003 193.612 59.5041ZM193.612 100H267.973C278.438 98.0716 286.149 88.7052 288.077 79.8898H173.232C175.435 88.7052 183.147 98.0716 193.612 100Z" fill="#5E5E5E" fill-opacity="0.1"/>
<path d="M0 0.275482C2.20327 9.09091 9.91471 17.9063 20.1048 20.1102H51.5014L53.1539 20.6612V99.7245H72.7079V20.6612L74.3603 20.1102H105.757C116.222 17.3554 123.658 9.09091 125.862 0.275482V0L0 0.275482Z" fill="#5E5E5E" fill-opacity="0.1"/>
</svg>
