<svg width="1082" height="142" viewBox="0 0 1082 142" fill="none" xmlns="http://www.w3.org/2000/svg">
<g clip-path="url(#clip0_202_601)">
<path d="M924.604 56.4339V141.5H951.787V84.7893H1051.2V141.5H1078.38V56.4339H924.604ZM948.681 28.8554H1053.53C1068.28 26.1364 1078.77 12.9298 1081.88 0.5H920.333C923.439 12.9298 934.312 25.7479 948.681 28.8554ZM841.891 141.5C855.482 135.674 862.86 125.574 865.967 113.921H743.644V0.88843H716.073V141.5H841.891ZM512.202 28.4669H609.283C624.04 24.1942 636.078 12.9298 639.185 0.88843H485.407V84.0124H611.225V113.145H512.59C497.057 117.417 483.854 127.905 477.253 141.5H638.408V56.4339H512.59L512.202 28.4669ZM272.993 28.8554H377.841C392.597 26.1364 403.471 12.9298 406.189 0.5H244.257C247.363 12.9298 258.237 25.7479 272.993 28.8554ZM272.993 84.4008H377.841C392.597 81.6818 403.471 68.4752 406.189 56.0455H244.257C247.363 68.4752 258.237 81.2934 272.993 84.4008ZM272.993 141.5H377.841C392.597 138.781 403.471 125.574 406.189 113.145H244.257C247.363 125.574 258.237 138.781 272.993 141.5Z" fill="#5E5E5E" fill-opacity="0.1"/>
<path d="M0 0.88843C3.10661 13.3182 13.9797 25.7479 28.3478 28.8554H72.617L74.947 29.6322V141.112H102.518V29.6322L104.848 28.8554H149.117C163.874 24.9711 174.358 13.3182 177.465 0.88843V0.5L0 0.88843Z" fill="#5E5E5E" fill-opacity="0.1"/>
</g>
<defs>
<clipPath id="clip0_202_601">
<rect width="1082" height="141" fill="white" transform="translate(0 0.5)"/>
</clipPath>
</defs>
</svg>
